# xmcd CD database file
#
# Track frame offsets:
#	150
#	24690
#	52875
#
# Disc length: 1030 seconds
#
# Revision: 0
# Processed by: cddbd v1.5.1PL0 Copyright (c) Steve Scherf et al.
# Submitted via: CDex 1.50beta8
#
DISCID=1c040403
DTITLE=HALCALI - マーチングマーチ
DYEAR=2004
DGENRE=J-POP
TTITLE0=マーチングマーチ
TTITLE1=Highway to the Beach
TTITLE2=マーチングマーチ（2人ともいないヴァージョン）
EXTD=YEAR: 2004
EXTT0=
EXTT1=
EXTT2=
PLAYORDER=
